# xmcd
# Track frame offsets:
# 150
# 15936
# 31370
# 49028
# 64451
# 82433
# 97211
# 124437
# 141514
# 156318
# 172658
#
# Disc length: 2566 seconds
# Revision: 0
# Processed by: cddbd v1.5.1PL0 Copyright (c) Steve Scherf et al.
# Submitted via: VisiTrax 2.9.10.228 - For more info visit www.synapsa.com
#
DISCID=9e0a040b
DTITLE=Mick Taylor - Shadowman, Disk one
DYEAR=2003
DGENRE=
TTITLE0=Sasha Gracanin - Turn off the light
TTITLE1=Sasha Gracanin - Hurt
TTITLE2=Sasha Gracanin - Just another heartache
TTITLE3=Sasha Gracanin - Shadow woman
TTITLE4=Sasha Gracanin - Don´t cry little woman
TTITLE5=Jagger/Richards - Honky tonk woman
TTITLE6=Sasha Gracanin - Shattered
TTITLE7=Sasha Gracanin - Happy man
TTITLE8=Sasha Gracanin - Don´t wait too long
TTITLE9=Sasha Gracanin - This might
TTITLE10=Sasha Gracanin - Someday
EXTD=
EXTT0=
EXTT1=
EXTT2=
EXTT3=
EXTT4=
EXTT5=
EXTT6=
EXTT7=
EXTT8=
EXTT9=
EXTT10=
PLAYORDER=
